<svg width="688" height="641" viewBox="0 0 688 641" fill="none" xmlns="http://www.w3.org/2000/svg">
<path d="M461.273 13.3514C461.273 13.3514 348.583 -26.7191 237.965 37.0755C127.346 100.87 71.5321 227.51 23.6005 328.955C-24.3295 430.399 3.26022 533.585 87.7024 580.634C172.143 627.684 229.562 558.326 348.022 554.95C466.481 551.572 498.34 568.508 596.637 501.589C694.934 434.67 712.704 276.63 635.163 159.691C557.621 42.7524 461.273 13.3514 461.273 13.3514Z" fill="#5AE4A7"/>
<g opacity="0.699997">
<g opacity="0.699997">
<path opacity="0.699997" d="M461.273 13.3514C461.273 13.3514 348.583 -26.7191 237.965 37.0755C127.346 100.87 71.5321 227.51 23.6005 328.955C-24.3295 430.399 3.26022 533.585 87.7024 580.634C172.143 627.684 229.562 558.326 348.022 554.95C466.481 551.572 498.34 568.508 596.637 501.589C694.934 434.67 712.704 276.63 635.163 159.691C557.621 42.7524 461.273 13.3514 461.273 13.3514Z" fill="white"/>
</g>
</g>
<path d="M34.5929 375.492C34.5929 375.492 37.3083 380.62 34.8958 385.448C32.4802 390.274 29.4649 395.103 31.2747 397.515C33.0845 399.929 38.5154 402.946 37.9111 408.075C37.3083 413.204 30.0677 423.462 34.5929 429.195C39.1182 434.927 46.6617 434.626 46.9631 440.962C47.2645 447.297 39.7224 452.427 41.8336 458.158C43.9462 463.891 56.315 465.098 56.315 469.019C56.315 472.943 51.4883 477.166 55.4108 481.389C59.3333 485.615 78.3078 496.634 81.0247 492.109C83.7387 487.582 89.2016 475.054 85.6082 457.284C85.004 454.296 80.7539 453.634 80.1511 449.41C79.5469 445.185 81.3582 437.644 78.3399 433.419C75.323 429.195 65.6683 427.686 65.0655 424.367C64.4627 421.048 68.6866 412.902 64.4627 407.774C60.2374 402.645 50.2813 400.231 50.2813 396.912C50.2813 393.594 53.2996 389.369 49.0743 384.844C44.8504 380.318 34.5929 375.492 34.5929 375.492Z" fill="#5AE4A7"/>
<path d="M49.0427 411.044C55.3224 430.01 66.3298 455.703 70.7982 468.115C76.2277 483.201 80.9495 494.122 83.3635 509.206C85.7761 524.29 87.0894 625.324 87.0894 625.324" stroke="#1A2535" stroke-width="1.33333" stroke-miterlimit="10" stroke-linecap="round" stroke-linejoin="round"/>
<path d="M36.1015 377.302C36.1015 377.302 41.2295 381.524 45.7562 399.929C46.0474 401.115 46.3837 402.37 46.7579 403.682" stroke="#1A2535" stroke-width="1.33333" stroke-miterlimit="10" stroke-linecap="round" stroke-linejoin="round"/>
<path d="M128.902 409.864C128.902 409.864 126.73 413.969 128.661 417.833C130.593 421.695 133.007 425.558 131.558 427.49C130.109 429.422 125.763 431.838 126.247 435.941C126.73 440.045 132.525 448.256 128.902 452.844C125.281 457.432 119.245 457.19 119.003 462.26C118.761 467.331 124.798 471.435 123.107 476.022C121.417 480.611 111.518 481.576 111.518 484.715C111.518 487.853 115.38 491.235 112.243 494.615C109.104 497.994 93.9175 506.815 91.7437 503.192C89.5713 499.57 85.199 489.545 88.076 475.323C88.5594 472.932 91.9606 472.401 92.4426 469.021C92.9259 465.64 91.4772 459.604 93.8913 456.225C96.3068 452.844 104.032 451.635 104.516 448.979C104.999 446.324 101.618 439.804 104.999 435.701C108.378 431.596 116.347 429.664 116.347 427.007C116.347 424.351 113.933 420.972 117.312 417.351C120.693 413.728 128.902 409.864 128.902 409.864Z" fill="#5AE4A7"/>
<path d="M117.338 438.317C112.312 453.496 103.505 474.058 99.9274 483.99C95.5827 496.064 91.8044 504.802 89.8723 516.876C87.9416 528.949 86.8889 609.803 86.8889 609.803" stroke="#1A2535" stroke-width="1.33333" stroke-miterlimit="10" stroke-linecap="round" stroke-linejoin="round"/>
<path d="M127.695 411.313C127.695 411.313 123.591 414.694 119.968 429.423C119.735 430.372 119.467 431.375 119.167 432.425" stroke="#1A2535" stroke-width="1.33333" stroke-miterlimit="10" stroke-linecap="round" stroke-linejoin="round"/>
<path d="M45.874 478.232C45.874 478.232 47.6896 481.661 46.0764 484.889C44.4617 488.117 42.4451 491.345 43.6551 492.958C44.865 494.573 48.4963 496.589 48.0929 500.02C47.6896 503.449 42.8484 510.306 45.874 514.14C48.8996 517.974 53.9432 517.771 54.1455 522.007C54.3465 526.245 49.3029 529.674 50.7152 533.506C52.1275 537.34 60.3991 538.145 60.3991 540.769C60.3991 543.391 57.1711 546.214 59.7934 549.04C62.4156 551.863 75.1032 559.232 76.9188 556.207C78.7345 553.18 82.3876 544.803 79.9837 532.921C79.5789 530.923 76.7383 530.481 76.335 527.656C75.9317 524.831 77.1431 519.789 75.125 516.965C73.1085 514.14 66.6526 513.132 66.2493 510.912C65.846 508.693 68.6691 503.248 65.846 499.817C63.0213 496.388 56.3645 494.774 56.3645 492.555C56.3645 490.336 58.381 487.511 55.5564 484.486C52.7332 481.46 45.874 478.232 45.874 478.232Z" fill="#5AE4A7"/>
<path d="M55.5357 502.004C59.7348 514.686 67.0934 531.864 70.0812 540.163C73.7124 550.25 76.869 557.551 78.4837 567.638C80.097 577.725 80.9749 615.163 80.9749 615.163" stroke="#1A2535" stroke-width="1.33333" stroke-miterlimit="10" stroke-linecap="round" stroke-linejoin="round"/>
<path d="M46.8829 479.442C46.8829 479.442 50.3117 482.267 53.3388 494.573C53.5324 495.366 53.7581 496.205 54.0085 497.082" stroke="#1A2535" stroke-width="1.33333" stroke-miterlimit="10" stroke-linecap="round" stroke-linejoin="round"/>
<path d="M149.785 473.209C149.785 473.209 147.232 476.131 148.065 479.643C148.898 483.153 150.122 486.758 148.575 488.051C147.027 489.345 143.03 490.478 142.639 493.909C142.247 497.339 145.389 505.124 141.567 508.163C137.744 511.201 132.88 509.85 131.714 513.929C130.549 518.007 134.674 522.5 132.422 525.907C130.169 529.316 121.934 528.208 121.333 530.76C120.733 533.314 123.229 536.802 120.03 538.95C116.831 541.1 102.794 545.369 101.719 542.008C100.645 538.646 99.0052 529.656 104.065 518.639C104.915 516.788 107.782 517.005 108.822 514.349C109.86 511.692 109.836 506.506 112.446 504.219C115.056 501.931 121.572 502.425 122.472 500.357C123.371 498.291 121.87 492.342 125.404 489.65C128.938 486.958 135.787 486.91 136.295 484.75C136.803 482.59 135.485 479.379 138.927 477.079C142.369 474.78 149.785 473.209 149.785 473.209Z" fill="#5AE4A7"/>
<path d="M134.939 494.137C127.949 505.522 116.854 520.559 112.046 527.956C106.203 536.942 99.194 542.692 97.5793 552.778C95.9661 562.865 95.0881 600.303 95.0881 600.303" stroke="#1A2535" stroke-width="1.33333" stroke-miterlimit="10" stroke-linecap="round" stroke-linejoin="round"/>
<path d="M148.526 474.156C148.526 474.156 144.541 476.12 138.779 487.407C138.408 488.135 137.997 488.899 137.553 489.695" stroke="#1A2535" stroke-width="1.33333" stroke-miterlimit="10" stroke-linecap="round" stroke-linejoin="round"/>
<path d="M78.1279 636.694H100.566C112.373 630.602 120.76 615.194 120.76 597.136C120.76 585.283 117.144 574.574 111.323 566.888H67.371C61.5499 574.574 57.9346 585.283 57.9346 597.136C57.9346 615.194 66.3212 630.602 78.1279 636.694Z" fill="white"/>
<path d="M78.1279 636.694H100.566C112.373 630.602 120.76 615.194 120.76 597.136C120.76 585.283 117.144 574.574 111.323 566.888H67.371C61.5499 574.574 57.9346 585.283 57.9346 597.136C57.9346 615.194 66.3212 630.602 78.1279 636.694Z" stroke="#1A2535" stroke-width="1.33333" stroke-miterlimit="10" stroke-linecap="round" stroke-linejoin="round"/>
<path d="M100.975 640.04H78.1285V636.694H100.975V640.04Z" fill="white" stroke="#1A2535" stroke-width="1.33333" stroke-miterlimit="10" stroke-linecap="round" stroke-linejoin="round"/>
<path d="M412.35 342.9H54.6971V72.2H412.35V342.9Z" stroke="#1A2535" stroke-width="1.33333" stroke-miterlimit="10" stroke-linecap="round" stroke-linejoin="round"/>
<path d="M404.002 335.727H63.0472V79.3708H404.002V335.727Z" stroke="#1A2535" stroke-width="1.33333" stroke-miterlimit="10" stroke-linecap="round" stroke-linejoin="round"/>
<path d="M166.973 116.995C166.973 116.995 111.269 112.967 106.572 121.693C101.874 130.418 105.23 290.144 107.913 292.157C110.598 294.172 185.764 295.513 193.148 292.829C200.529 290.144 190.463 127.733 190.463 123.034C190.463 118.337 173.012 116.324 173.012 116.324" stroke="#1A2535" stroke-width="2.66667" stroke-miterlimit="10" stroke-linecap="round" stroke-linejoin="round"/>
<path d="M112.33 249.208C112.44 270.266 112.899 285.697 113.955 286.117C117.309 287.46 188.449 293.499 190.463 286.79C192.475 280.078 185.093 128.404 185.093 128.404" stroke="#1A2535" stroke-width="2.66667" stroke-miterlimit="10" stroke-linecap="round" stroke-linejoin="round"/>
<path d="M182.409 127.733C182.409 127.733 114.625 125.048 113.954 128.404C113.527 130.541 112.282 193.432 112.303 239.14" stroke="#1A2535" stroke-width="2.66667" stroke-miterlimit="10" stroke-linecap="round" stroke-linejoin="round"/>
<path d="M115.968 139.813H181.738" stroke="#1A2535" stroke-width="2.66667" stroke-miterlimit="10" stroke-linecap="round" stroke-linejoin="round"/>
<path d="M175.698 136.775C171.67 141.028 175.698 136.775 178.383 130.699C181.067 124.623 175.698 131.915 169.658 136.775C163.617 141.635 166.973 137.99 168.987 131.306C170.999 124.623 166.973 131.306 161.604 135.561C156.235 139.812 158.92 137.99 160.932 130.699C162.946 123.409 160.932 130.699 152.879 135.561C144.826 140.42 148.853 140.42 152.879 133.129C156.907 125.839 150.194 133.129 142.812 135.561C135.431 137.99 142.812 135.561 145.497 128.876C148.182 122.193 140.799 130.699 135.431 134.345C130.061 137.99 135.431 134.345 136.773 130.092C138.115 125.839 133.417 131.306 128.047 136.775C122.679 142.243 128.047 136.775 128.718 131.915C129.39 127.054 122.679 139.812 122.679 139.812C122.679 139.812 124.693 127.662 123.35 130.699C122.008 133.738 119.994 136.168 119.994 136.168" stroke="#5AE4A7" stroke-width="2.66667" stroke-miterlimit="10" stroke-linecap="round" stroke-linejoin="round"/>
<path d="M152.208 185.449H119.323V151.221H152.208V185.449Z" stroke="#5AE4A7" stroke-width="2.66667" stroke-miterlimit="10" stroke-linecap="round" stroke-linejoin="round"/>
<path d="M126.034 151.222L120.665 157.262L132.074 153.236L120.665 163.974L139.457 151.893L120.665 172.027L146.168 153.236L119.324 178.066L151.538 155.921L119.324 185.45L151.538 163.974L128.719 184.107L152.209 171.356L137.444 183.436L151.538 178.738L148.853 183.436" stroke="#5AE4A7" stroke-width="2.66667" stroke-miterlimit="10" stroke-linecap="round" stroke-linejoin="round"/>
<path d="M180.554 282.091H155.407V255.918H180.554V282.091Z" stroke="#5AE4A7" stroke-width="2.66667" stroke-miterlimit="10" stroke-linecap="round" stroke-linejoin="round"/>
<path d="M160.538 255.918L156.432 260.536L165.157 257.457L156.432 265.669L170.802 256.43L156.432 271.827L175.934 257.457L155.406 276.446L180.04 259.51L155.406 282.091L180.04 265.669L162.591 281.064L180.554 271.313L169.263 280.552L180.04 276.96L177.987 280.552" stroke="#5AE4A7" stroke-width="2.66667" stroke-miterlimit="10" stroke-linecap="round" stroke-linejoin="round"/>
<path d="M118.652 198.201H183.08" stroke="#1A2535" stroke-width="2.66667" stroke-miterlimit="10" stroke-linecap="round" stroke-linejoin="round"/>
<path d="M117.981 204.241L181.738 204.912" stroke="#1A2535" stroke-width="2.66667" stroke-miterlimit="10" stroke-linecap="round" stroke-linejoin="round"/>
<path d="M158.92 153.236H179.724" stroke="#1A2535" stroke-width="2.66667" stroke-miterlimit="10" stroke-linecap="round" stroke-linejoin="round"/>
<path d="M158.92 161.289H179.724" stroke="#1A2535" stroke-width="2.66667" stroke-miterlimit="10" stroke-linecap="round" stroke-linejoin="round"/>
<path d="M158.92 169.343H179.724" stroke="#1A2535" stroke-width="2.66667" stroke-miterlimit="10" stroke-linecap="round" stroke-linejoin="round"/>
<path d="M158.92 177.396H179.724" stroke="#1A2535" stroke-width="2.66667" stroke-miterlimit="10" stroke-linecap="round" stroke-linejoin="round"/>
<path d="M181.737 238.468H119.323V208.268H181.737V238.468Z" stroke="#5AE4A7" stroke-width="2.66667" stroke-miterlimit="10" stroke-linecap="round" stroke-linejoin="round"/>
<path d="M118.652 214.308L127.376 208.938L117.31 224.375L134.089 208.938L119.323 231.085L145.496 208.268L122.679 235.113L150.866 208.938L129.39 235.113L160.262 208.268L135.429 237.798L166.303 208.938L142.813 236.455L174.356 208.268L150.195 237.798L181.738 208.268L158.919 237.126L180.395 218.335L166.303 235.784L180.395 226.388L177.63 230.882L175.027 235.113" stroke="#5AE4A7" stroke-width="2.66667" stroke-miterlimit="10" stroke-linecap="round" stroke-linejoin="round"/>
<path d="M122.008 246.521H179.725" stroke="#1A2535" stroke-width="2.66667" stroke-miterlimit="10" stroke-linecap="round" stroke-linejoin="round"/>
<path d="M120.665 253.904H139.456" stroke="#1A2535" stroke-width="2.66667" stroke-miterlimit="10" stroke-linecap="round" stroke-linejoin="round"/>
<path d="M193.147 131.76L239.221 126.102" stroke="#1A2535" stroke-width="2.66667" stroke-miterlimit="10" stroke-linecap="round" stroke-linejoin="round"/>
<path d="M185.765 164.645H234.086" stroke="#1A2535" stroke-width="2.66667" stroke-miterlimit="10" stroke-linecap="round" stroke-linejoin="round"/>
<path d="M109.256 225.717L88.4515 233.099" stroke="#1A2535" stroke-width="2.66667" stroke-miterlimit="10" stroke-linecap="round" stroke-linejoin="round"/>
<path d="M168.315 286.789C168.315 286.789 164.288 307.594 191.805 312.962" stroke="#1A2535" stroke-width="2.66667" stroke-miterlimit="10" stroke-linecap="round" stroke-linejoin="round"/>
<path d="M187.778 307.594L194.489 313.633L185.093 316.318" stroke="#1A2535" stroke-width="2.66667" stroke-miterlimit="10" stroke-linecap="round" stroke-linejoin="round"/>
<path d="M228.045 158.605L238.783 165.315L229.388 169.343" stroke="#1A2535" stroke-width="2.66667" stroke-miterlimit="10" stroke-linecap="round" stroke-linejoin="round"/>
<path d="M230.496 124.088L241.905 125.43L233.852 132.812" stroke="#1A2535" stroke-width="2.66667" stroke-miterlimit="10" stroke-linecap="round" stroke-linejoin="round"/>
<path d="M91.1359 226.388L79.7267 235.784L93.8208 236.455" stroke="#1A2535" stroke-width="2.66667" stroke-miterlimit="10" stroke-linecap="round" stroke-linejoin="round"/>
<path d="M267.641 185.449H242.138V158.605H267.641V185.449Z" fill="#5AE4A7"/>
<path d="M248.179 164.645L262.944 165.316" stroke="#1A2535" stroke-width="2.66667" stroke-miterlimit="10" stroke-linecap="round" stroke-linejoin="round"/>
<path d="M248.179 170.014L262.944 170.685" stroke="#1A2535" stroke-width="2.66667" stroke-miterlimit="10" stroke-linecap="round" stroke-linejoin="round"/>
<path d="M248.179 175.383L262.944 176.054" stroke="#1A2535" stroke-width="2.66667" stroke-miterlimit="10" stroke-linecap="round" stroke-linejoin="round"/>
<path d="M230.201 221.446L204.874 224.433L201.729 197.773L227.056 194.786L230.201 221.446Z" fill="#5AE4A7"/>
<path d="M208.436 203.064L223.178 202.002" stroke="#1A2535" stroke-width="2.66667" stroke-miterlimit="10" stroke-linecap="round" stroke-linejoin="round"/>
<path d="M209.064 208.396L223.806 207.334" stroke="#1A2535" stroke-width="2.66667" stroke-miterlimit="10" stroke-linecap="round" stroke-linejoin="round"/>
<path d="M209.693 213.728L224.435 212.666" stroke="#1A2535" stroke-width="2.66667" stroke-miterlimit="10" stroke-linecap="round" stroke-linejoin="round"/>
<path d="M97.9893 267.083L72.6622 270.069L69.5173 243.41L94.8458 240.422L97.9893 267.083Z" fill="#5AE4A7"/>
<path d="M76.224 248.701L90.966 247.638" stroke="#1A2535" stroke-width="2.66667" stroke-miterlimit="10" stroke-linecap="round" stroke-linejoin="round"/>
<path d="M76.8524 254.033L91.5944 252.97" stroke="#1A2535" stroke-width="2.66667" stroke-miterlimit="10" stroke-linecap="round" stroke-linejoin="round"/>
<path d="M77.4816 259.365L92.2236 258.302" stroke="#1A2535" stroke-width="2.66667" stroke-miterlimit="10" stroke-linecap="round" stroke-linejoin="round"/>
<path d="M223.871 322.96L198.511 320.265L201.347 293.57L226.708 296.265L223.871 322.96Z" fill="#5AE4A7"/>
<path d="M206.716 300.215L221.327 302.442" stroke="#1A2535" stroke-width="2.66667" stroke-miterlimit="10" stroke-linecap="round" stroke-linejoin="round"/>
<path d="M206.149 305.554L220.76 307.782" stroke="#1A2535" stroke-width="2.66667" stroke-miterlimit="10" stroke-linecap="round" stroke-linejoin="round"/>
<path d="M205.581 310.893L220.192 313.121" stroke="#1A2535" stroke-width="2.66667" stroke-miterlimit="10" stroke-linecap="round" stroke-linejoin="round"/>
<path d="M412.337 352.045H54.6971V342.9H412.337V352.045Z" fill="#1A2535" stroke="#1A2535" stroke-width="1.33333" stroke-miterlimit="10" stroke-linecap="round" stroke-linejoin="round"/>
<path d="M555.859 408.436V391.365H504.501V408.436C504.501 414.007 502.579 419.415 499.045 423.783L496.797 426.562H563.562L561.313 423.783C557.781 419.415 555.859 414.007 555.859 408.436Z" fill="#1A2535"/>
<path d="M555.859 408.436V391.365H504.501V408.436C504.501 414.007 502.579 419.415 499.045 423.783L496.797 426.562H563.562L561.313 423.783C557.781 419.415 555.859 414.007 555.859 408.436Z" stroke="#1A2535" stroke-width="1.33333" stroke-miterlimit="10" stroke-linecap="round" stroke-linejoin="round"/>
<path d="M552.947 408.436V391.365H501.589V408.436C501.589 414.007 499.667 419.415 496.134 423.783L493.885 426.562H560.65L558.401 423.783C554.869 419.415 552.947 414.007 552.947 408.436Z" fill="white"/>
<path d="M552.947 408.436V391.365H501.589V408.436C501.589 414.007 499.667 419.415 496.134 423.783L493.885 426.562H560.65L558.401 423.783C554.869 419.415 552.947 414.007 552.947 408.436Z" stroke="#1A2535" stroke-width="1.33333" stroke-miterlimit="10" stroke-linecap="round" stroke-linejoin="round"/>
<path d="M553.36 401.418H501.798V396.186H553.36V401.418Z" fill="#1A2535"/>
<path d="M618.12 396.749H436.417C429.595 396.749 424.064 391.217 424.064 384.396V257.542C424.064 250.719 429.595 245.189 436.417 245.189H618.12C624.942 245.189 630.472 250.719 630.472 257.542V384.396C630.472 391.217 624.942 396.749 618.12 396.749Z" fill="#1A2535"/>
<path d="M618.12 396.749H436.417C429.595 396.749 424.064 391.217 424.064 384.396V257.542C424.064 250.719 429.595 245.189 436.417 245.189H618.12C624.942 245.189 630.472 250.719 630.472 257.542V384.396C630.472 391.217 624.942 396.749 618.12 396.749Z" stroke="#1A2535" stroke-width="1.33333" stroke-miterlimit="10" stroke-linecap="round" stroke-linejoin="round"/>
<path d="M623.655 396.749H441.954C435.131 396.749 429.601 391.217 429.601 384.396V257.542C429.601 250.719 435.131 245.189 441.954 245.189H623.655C630.479 245.189 636.008 250.719 636.008 257.542V384.396C636.008 391.217 630.479 396.749 623.655 396.749Z" fill="#1A2535"/>
<path d="M623.655 396.749H441.954C435.131 396.749 429.601 391.217 429.601 384.396V257.542C429.601 250.719 435.131 245.189 441.954 245.189H623.655C630.479 245.189 636.008 250.719 636.008 257.542V384.396C636.008 391.217 630.479 396.749 623.655 396.749Z" stroke="#1A2535" stroke-width="1.33333" stroke-miterlimit="10" stroke-linecap="round" stroke-linejoin="round"/>
<path d="M618.12 396.749H436.417C429.595 396.749 424.064 391.217 424.064 384.396V373.189H630.472V384.396C630.472 391.217 624.942 396.749 618.12 396.749Z" fill="white"/>
<path d="M618.12 396.749H436.417C429.595 396.749 424.064 391.217 424.064 384.396V373.189H630.472V384.396C630.472 391.217 624.942 396.749 618.12 396.749Z" stroke="#1A2535" stroke-width="1.33333" stroke-miterlimit="10" stroke-linecap="round" stroke-linejoin="round"/>
<path d="M620.091 361.694H434.447V254.616H620.091V361.694Z" fill="white"/>
<path d="M499.06 350.04H462.525C460.083 350.04 458.106 348.061 458.106 345.621V270.192C458.106 267.751 460.083 265.773 462.525 265.773H499.06C501.502 265.773 503.481 267.751 503.481 270.192V345.621C503.481 348.061 501.502 350.04 499.06 350.04Z" fill="#1A2535"/>
<path d="M499.674 342.969H461.914V272.844H499.674V342.969Z" fill="#5AE4A7"/>
<path d="M549.444 277.557H515.265V274.022H549.444V277.557Z" fill="#1A2535"/>
<path d="M531.767 298.183H515.856V281.682H531.767V298.183Z" fill="#5AE4A7"/>
<path d="M547.087 341.2H538.564V332.362H547.087V341.2Z" fill="#5AE4A7"/>
<path d="M548.658 326.469H516.248V309.969H548.658V326.469Z" fill="#5AE4A7"/>
<path d="M534.713 282.861H547.677" stroke="#1A2535" stroke-width="1.33333" stroke-miterlimit="10" stroke-linecap="round" stroke-linejoin="round"/>
<path d="M534.713 286.986H547.677" stroke="#1A2535" stroke-width="1.33333" stroke-miterlimit="10" stroke-linecap="round" stroke-linejoin="round"/>
<path d="M534.713 291.111H547.677" stroke="#1A2535" stroke-width="1.33333" stroke-miterlimit="10" stroke-linecap="round" stroke-linejoin="round"/>
<path d="M534.713 295.237H547.677" stroke="#1A2535" stroke-width="1.33333" stroke-miterlimit="10" stroke-linecap="round" stroke-linejoin="round"/>
<path d="M516.838 304.665H548.069" stroke="#1A2535" stroke-width="1.33333" stroke-miterlimit="10" stroke-linecap="round" stroke-linejoin="round"/>
<path d="M516.838 330.593H548.069" stroke="#1A2535" stroke-width="1.33333" stroke-miterlimit="10" stroke-linecap="round" stroke-linejoin="round"/>
<path d="M552.391 344.737H512.321V270.487H552.391V344.737Z" stroke="#1A2535" stroke-width="1.33333" stroke-miterlimit="10" stroke-linecap="round" stroke-linejoin="round"/>
<path d="M601.301 298.183H563.588V270.487H601.301V298.183Z" fill="#C0C0C0"/>
<path d="M601.301 276.379H563.588V270.487H601.301V276.379Z" fill="#1A2535"/>
<path d="M576.369 290.216H566.51V280.676H576.369V290.216Z" stroke="#1A2535" stroke-width="1.33333" stroke-miterlimit="10" stroke-linecap="round" stroke-linejoin="round"/>
<path d="M596.084 290.216H586.226V280.676H596.084V290.216Z" stroke="#1A2535" stroke-width="1.33333" stroke-miterlimit="10" stroke-linecap="round" stroke-linejoin="round"/>
<path d="M597.674 273.84C597.674 274.63 597.034 275.271 596.245 275.271C595.454 275.271 594.812 274.63 594.812 273.84C594.812 273.049 595.454 272.408 596.245 272.408C597.034 272.408 597.674 273.049 597.674 273.84Z" fill="white"/>
<path d="M590.838 273.84C590.838 274.63 590.197 275.271 589.407 275.271C588.618 275.271 587.976 274.63 587.976 273.84C587.976 273.049 588.618 272.408 589.407 272.408C590.197 272.408 590.838 273.049 590.838 273.84Z" fill="white"/>
<path d="M598.289 334.404H569.412V313.196H598.289V334.404Z" fill="#C0C0C0"/>
<path d="M598.289 317.708H569.412V313.196H598.289V317.708Z" fill="#1A2535"/>
<path d="M595.512 315.764C595.512 316.369 595.021 316.859 594.417 316.859C593.811 316.859 593.321 316.369 593.321 315.764C593.321 315.158 593.811 314.667 594.417 314.667C595.021 314.667 595.512 315.158 595.512 315.764Z" fill="white"/>
<path d="M590.277 315.764C590.277 316.369 589.786 316.859 589.182 316.859C588.576 316.859 588.085 316.369 588.085 315.764C588.085 315.158 588.576 314.667 589.182 314.667C589.786 314.667 590.277 315.158 590.277 315.764Z" fill="white"/>
<path d="M440.556 355.361H452.689V260.237H440.556V355.361Z" fill="#C0C0C0"/>
<path d="M440.556 264.605H452.689V260.237H440.556V264.605Z" fill="#1A2535"/>
<path d="M449.292 274.312H443.468V267.517H449.292V274.312Z" stroke="#1A2535" stroke-width="1.33333" stroke-miterlimit="10" stroke-linecap="round" stroke-linejoin="round"/>
<path d="M449.292 285.473H443.468V278.678H449.292V285.473Z" stroke="#1A2535" stroke-width="1.33333" stroke-miterlimit="10" stroke-linecap="round" stroke-linejoin="round"/>
<path d="M449.292 296.637H443.468V289.841H449.292V296.637Z" stroke="#1A2535" stroke-width="1.33333" stroke-miterlimit="10" stroke-linecap="round" stroke-linejoin="round"/>
<path d="M449.292 307.8H443.468V301.005H449.292V307.8Z" stroke="#1A2535" stroke-width="1.33333" stroke-miterlimit="10" stroke-linecap="round" stroke-linejoin="round"/>
<path d="M449.292 318.961H443.468V312.166H449.292V318.961Z" stroke="#1A2535" stroke-width="1.33333" stroke-miterlimit="10" stroke-linecap="round" stroke-linejoin="round"/>
<path d="M449.292 330.125H443.468V323.329H449.292V330.125Z" stroke="#1A2535" stroke-width="1.33333" stroke-miterlimit="10" stroke-linecap="round" stroke-linejoin="round"/>
<path d="M449.292 341.288H443.468V334.494H449.292V341.288Z" stroke="#1A2535" stroke-width="1.33333" stroke-miterlimit="10" stroke-linecap="round" stroke-linejoin="round"/>
<path d="M449.292 352.449H443.468V345.654H449.292V352.449Z" stroke="#1A2535" stroke-width="1.33333" stroke-miterlimit="10" stroke-linecap="round" stroke-linejoin="round"/>
<path d="M614.79 259.265H460.454V263.149H614.79V259.265Z" fill="#C0C0C0"/>
<path d="M614.79 353.421H460.454V357.302H614.79V353.421Z" fill="#C0C0C0"/>
<path d="M560.664 429.612H493.885V426.563H560.664V429.612Z" fill="#1A2535" stroke="#1A2535" stroke-width="1.33333" stroke-miterlimit="10" stroke-linecap="round" stroke-linejoin="round"/>
<path d="M604.309 424.076H449.285V429.612H604.309V424.076Z" fill="white" stroke="#1A2535" stroke-width="1.33333" stroke-miterlimit="10" stroke-linecap="round" stroke-linejoin="round"/>
<path d="M310.382 640.04H304.073L300.918 446.877H313.537L310.382 640.04Z" fill="white"/>
<path d="M310.382 640.04H304.073L300.918 446.877H313.537L310.382 640.04Z" stroke="#1A2535" stroke-width="1.33333" stroke-miterlimit="10" stroke-linecap="round" stroke-linejoin="round"/>
<path d="M310.382 640.04H307.597L307.968 446.877H313.537L310.382 640.04Z" fill="#1A2535"/>
<path d="M310.382 640.04H307.597L307.968 446.877H313.537L310.382 640.04Z" stroke="#1A2535" stroke-width="1.33333" stroke-miterlimit="10" stroke-linecap="round" stroke-linejoin="round"/>
<path d="M400.259 640.04H393.95L390.795 446.877H403.414L400.259 640.04Z" fill="white"/>
<path d="M400.259 640.04H393.95L390.795 446.877H403.414L400.259 640.04Z" stroke="#1A2535" stroke-width="1.33333" stroke-miterlimit="10" stroke-linecap="round" stroke-linejoin="round"/>
<path d="M400.259 640.04H397.475L397.845 446.877H403.414L400.259 640.04Z" fill="#1A2535"/>
<path d="M400.259 640.04H397.475L397.845 446.877H403.414L400.259 640.04Z" stroke="#1A2535" stroke-width="1.33333" stroke-miterlimit="10" stroke-linecap="round" stroke-linejoin="round"/>
<path d="M368.073 640.04H361.764L358.609 446.877H371.228L368.073 640.04Z" fill="#1A2535"/>
<path d="M368.073 640.04H361.764L358.609 446.877H371.228L368.073 640.04Z" stroke="#1A2535" stroke-width="1.33333" stroke-miterlimit="10" stroke-linecap="round" stroke-linejoin="round"/>
<path d="M368.073 640.04H365.289L365.659 446.877H371.228L368.073 640.04Z" fill="#1A2535"/>
<path d="M368.073 640.04H365.289L365.659 446.877H371.228L368.073 640.04Z" stroke="#1A2535" stroke-width="1.33333" stroke-miterlimit="10" stroke-linecap="round" stroke-linejoin="round"/>
<path d="M428.8 640.04H422.491L419.336 446.877H431.955L428.8 640.04Z" fill="#1A2535"/>
<path d="M428.8 640.04H422.491L419.336 446.877H431.955L428.8 640.04Z" stroke="#1A2535" stroke-width="1.33333" stroke-miterlimit="10" stroke-linecap="round" stroke-linejoin="round"/>
<path d="M428.8 640.04H426.016L426.386 446.877H431.955L428.8 640.04Z" fill="#1A2535"/>
<path d="M428.8 640.04H426.016L426.386 446.877H431.955L428.8 640.04Z" stroke="#1A2535" stroke-width="1.33333" stroke-miterlimit="10" stroke-linecap="round" stroke-linejoin="round"/>
<path d="M334.555 570.669H433.541V449.821H334.555V570.669Z" fill="#1A2535" stroke="#1A2535" stroke-width="1.33333" stroke-miterlimit="10" stroke-linecap="round" stroke-linejoin="round"/>
<path d="M307.227 570.669H406.213V449.821H307.227V570.669Z" fill="white" stroke="#1A2535" stroke-width="1.33333" stroke-miterlimit="10" stroke-linecap="round" stroke-linejoin="round"/>
<path d="M606.125 640.04H599.814L596.661 446.877H609.278L606.125 640.04Z" fill="white"/>
<path d="M606.125 640.04H599.814L596.661 446.877H609.278L606.125 640.04Z" stroke="#1A2535" stroke-width="1.33333" stroke-miterlimit="10" stroke-linecap="round" stroke-linejoin="round"/>
<path d="M606.125 640.04H603.339L603.709 446.877H609.278L606.125 640.04Z" fill="#1A2535"/>
<path d="M606.125 640.04H603.339L603.709 446.877H609.278L606.125 640.04Z" stroke="#1A2535" stroke-width="1.33333" stroke-miterlimit="10" stroke-linecap="round" stroke-linejoin="round"/>
<path d="M663.816 640.04H657.506L654.352 446.877H666.97L663.816 640.04Z" fill="#1A2535"/>
<path d="M663.816 640.04H657.506L654.352 446.877H666.97L663.816 640.04Z" stroke="#1A2535" stroke-width="1.33333" stroke-miterlimit="10" stroke-linecap="round" stroke-linejoin="round"/>
<path d="M663.816 640.04H661.031L661.4 446.877H666.97L663.816 640.04Z" fill="#1A2535"/>
<path d="M663.816 640.04H661.031L661.4 446.877H666.97L663.816 640.04Z" stroke="#1A2535" stroke-width="1.33333" stroke-miterlimit="10" stroke-linecap="round" stroke-linejoin="round"/>
<path d="M670.951 452.879H292.594V439.591H670.951V452.879Z" fill="white" stroke="#1A2535" stroke-width="1.33333" stroke-miterlimit="10" stroke-linecap="round" stroke-linejoin="round"/>
<path d="M670.951 446.235H292.594V439.592H670.951V446.235Z" fill="#1A2535" stroke="#1A2535" stroke-width="1.33333" stroke-miterlimit="10" stroke-linecap="round" stroke-linejoin="round"/>
<path d="M670.95 452.879H615.104V439.591H670.95V452.879Z" fill="#1A2535" stroke="#1A2535" stroke-width="1.33333" stroke-miterlimit="10" stroke-linecap="round" stroke-linejoin="round"/>
<path d="M683.174 442.202H282.328V428.913H683.174V442.202Z" fill="white" stroke="#1A2535" stroke-width="1.33333" stroke-miterlimit="10" stroke-linecap="round" stroke-linejoin="round"/>
<path d="M683.174 442.202H627.329V428.913H683.174V442.202Z" fill="#1A2535" stroke="#1A2535" stroke-width="1.33333" stroke-miterlimit="10" stroke-linecap="round" stroke-linejoin="round"/>
<path d="M400.152 503.661H313.52V461.437H400.152V503.661Z" fill="white" stroke="#1A2535" stroke-width="1.33333" stroke-miterlimit="10" stroke-linecap="round" stroke-linejoin="round"/>
<path d="M366.3 484.733H347.372V478.181H366.3V484.733Z" fill="#1A2535" stroke="#1A2535" stroke-width="1.33333" stroke-miterlimit="10" stroke-linecap="round" stroke-linejoin="round"/>
<path d="M400.152 556.805H313.52V514.581H400.152V556.805Z" fill="white" stroke="#1A2535" stroke-width="1.33333" stroke-miterlimit="10" stroke-linecap="round" stroke-linejoin="round"/>
<path d="M366.3 537.877H347.372V531.325H366.3V537.877Z" fill="#1A2535" stroke="#1A2535" stroke-width="1.33333" stroke-miterlimit="10" stroke-linecap="round" stroke-linejoin="round"/>
<path d="M533.517 527.152H559.402V475.093H533.517V527.152Z" fill="#1A2535"/>
<path d="M539.988 580.771H552.931V508.664H539.988V580.771Z" fill="#1A2535"/>
<path d="M551.722 575.224C551.722 575.224 562.596 587.562 590.55 591.864C605.318 594.136 620.686 596.962 634.027 604.025C642.61 608.568 659.686 618.508 659.686 629.865C659.686 635.485 655.132 640.041 649.513 640.041C643.894 640.041 639.339 635.485 639.339 629.865C639.339 627.18 640.4 624.754 642.101 622.935C640.684 620.628 631.428 606.708 611.945 602.473C590.683 597.85 575.163 599.734 545.252 579.845L551.722 575.224Z" fill="#1A2535"/>
<path d="M542.472 575.224C542.472 575.224 531.598 587.562 503.645 591.864C488.876 594.136 473.508 596.962 460.167 604.025C451.584 608.568 434.508 618.508 434.508 629.865C434.508 635.485 439.062 640.041 444.681 640.041C450.3 640.041 454.856 635.485 454.856 629.865C454.856 627.18 453.796 624.754 452.093 622.935C453.51 620.628 462.767 606.708 482.249 602.473C503.511 597.85 519.032 599.734 548.942 579.845L542.472 575.224Z" fill="#1A2535"/>
<path d="M542.028 620.944H551.817C552.342 620.944 552.771 621.371 552.771 621.898V639.086C552.771 639.613 552.342 640.04 551.817 640.04H542.028C541.501 640.04 541.073 639.613 541.073 639.086V621.898C541.073 621.371 541.501 620.944 542.028 620.944Z" fill="#1A2535"/>
<path d="M544.147 640.04H549.695V576.946H544.147V640.04Z" fill="#1A2535"/>
<path d="M609.151 324.76C606.163 341.134 603.858 359.044 603.315 376.972C602.906 390.478 602.68 402.056 602.481 412.27C601.86 443.984 601.517 461.577 596.521 466.315C595.881 466.746 591.754 469.3 583.093 470.019C580.674 470.221 572.997 470.332 562.544 470.383C529.388 470.286 494.543 470.01 493.987 470.006H491.966C491.877 470.083 491.81 470.163 491.729 470.239C471.819 470.13 466.69 470.009 466.323 470.006H464.302C460.125 473.633 462.622 478.292 466.249 478.327C468.979 478.352 516.43 478.738 548.878 478.738C554.625 478.738 560.022 478.726 564.818 478.697C572.704 478.723 580.229 478.738 586.734 478.738C603.728 478.738 617.804 478.633 621.64 478.312C633.649 477.314 639.032 473.254 639.609 472.796C647.615 465.685 647.919 450.095 648.656 412.431C648.856 402.239 649.08 390.686 649.489 377.227C650.035 359.191 652.41 341.159 655.46 324.76H609.151Z" fill="#1A2535"/>
<path d="M351.74 596.603L355.016 613.711C355.016 613.711 352.104 619.899 340.82 624.995C329.536 630.091 324.076 632.275 324.076 633.731C324.076 635.187 323.348 638.463 326.26 639.555C329.172 640.647 391.052 639.555 391.052 639.555C391.052 639.555 394.328 638.099 394.328 631.183C394.328 624.267 391.416 611.527 391.416 608.615C391.416 605.703 389.367 598.687 389.367 597.702C389.367 596.717 364.48 598.059 364.48 598.059C364.48 598.059 357.2 591.143 351.74 596.603Z" fill="white"/>
<path d="M351.74 596.603L355.016 613.711C355.016 613.711 352.104 619.899 340.82 624.995C329.536 630.091 324.076 632.275 324.076 633.731C324.076 635.187 323.348 638.463 326.26 639.555C329.172 640.647 391.052 639.555 391.052 639.555C391.052 639.555 394.328 638.099 394.328 631.183C394.328 624.267 391.416 611.527 391.416 608.615C391.416 605.703 389.367 598.687 389.367 597.702C389.367 596.717 364.48 598.059 364.48 598.059C364.48 598.059 357.2 591.143 351.74 596.603Z" stroke="#1A2535" stroke-width="1.33333" stroke-miterlimit="10" stroke-linecap="round" stroke-linejoin="round"/>
<path d="M364.48 598.059C364.48 598.059 366.3 614.439 367.392 615.531C368.484 616.623 391.416 616.623 391.416 616.623" fill="white"/>
<path d="M364.48 598.059C364.48 598.059 366.3 614.439 367.392 615.531C368.484 616.623 391.416 616.623 391.416 616.623" stroke="#1A2535" stroke-width="1.33333" stroke-miterlimit="10" stroke-linecap="round" stroke-linejoin="round"/>
<path d="M391.416 608.615L365.936 608.979L391.416 608.615Z" fill="white"/>
<path d="M391.416 608.615L365.936 608.979" stroke="#1A2535" stroke-width="1.33333" stroke-miterlimit="10" stroke-linecap="round" stroke-linejoin="round"/>
<path d="M324.076 636.643H393.6H324.076Z" fill="white"/>
<path d="M324.076 636.643H393.6" stroke="#1A2535" stroke-width="1.33333" stroke-miterlimit="10" stroke-linecap="round" stroke-linejoin="round"/>
<path d="M397.237 391.432C397.237 391.432 377.054 459.368 374.592 468.723C372.13 478.076 386.407 560.289 386.407 561.764C386.407 563.242 388.376 567.672 388.376 572.595C388.376 577.519 386.407 578.994 387.392 580.472C388.376 581.95 391.822 585.395 391.329 588.349C390.836 591.302 390.346 592.286 388.376 594.256C386.407 596.224 384.437 596.717 384.437 596.717H372.623C372.623 596.717 369.668 574.564 361.792 515.981C353.915 457.399 366.715 423.923 369.177 413.093C371.638 402.262 376.562 392.91 376.562 392.91L397.237 391.432Z" fill="#1A2535"/>
<path d="M397.237 391.432C397.237 391.432 377.054 459.368 374.592 468.723C372.13 478.076 386.407 560.289 386.407 561.764C386.407 563.242 388.376 567.672 388.376 572.595C388.376 577.519 386.407 578.994 387.392 580.472C388.376 581.95 391.822 585.395 391.329 588.349C390.836 591.302 390.346 592.286 388.376 594.256C386.407 596.224 384.437 596.717 384.437 596.717H372.623C372.623 596.717 369.668 574.564 361.792 515.981C353.915 457.399 366.715 423.923 369.177 413.093C371.638 402.262 376.562 392.91 376.562 392.91L397.237 391.432Z" stroke="#1A2535" stroke-width="1.33333" stroke-miterlimit="10" stroke-linecap="round" stroke-linejoin="round"/>
<path d="M334.996 596.603L338.272 613.711C338.272 613.711 335.36 619.899 324.076 624.995C312.792 630.091 307.332 632.275 307.332 633.731C307.332 635.187 306.604 638.463 309.516 639.555C312.428 640.647 374.308 639.555 374.308 639.555C374.308 639.555 377.584 638.099 377.584 631.183C377.584 624.267 374.672 611.527 374.672 608.615C374.672 605.703 372.623 598.687 372.623 597.702C372.623 596.717 347.736 598.059 347.736 598.059C347.736 598.059 340.456 591.143 334.996 596.603Z" fill="white"/>
<path d="M334.996 596.603L338.272 613.711C338.272 613.711 335.36 619.899 324.076 624.995C312.792 630.091 307.332 632.275 307.332 633.731C307.332 635.187 306.604 638.463 309.516 639.555C312.428 640.647 374.308 639.555 374.308 639.555C374.308 639.555 377.584 638.099 377.584 631.183C377.584 624.267 374.672 611.527 374.672 608.615C374.672 605.703 372.623 598.687 372.623 597.702C372.623 596.717 347.736 598.059 347.736 598.059C347.736 598.059 340.456 591.143 334.996 596.603Z" stroke="#1A2535" stroke-width="1.33333" stroke-miterlimit="10" stroke-linecap="round" stroke-linejoin="round"/>
<path d="M347.736 598.059C347.736 598.059 349.556 614.439 350.648 615.531C351.74 616.623 374.672 616.623 374.672 616.623" fill="white"/>
<path d="M347.736 598.059C347.736 598.059 349.556 614.439 350.648 615.531C351.74 616.623 374.672 616.623 374.672 616.623" stroke="#1A2535" stroke-width="1.33333" stroke-miterlimit="10" stroke-linecap="round" stroke-linejoin="round"/>
<path d="M374.672 608.615L349.192 608.979L374.672 608.615Z" fill="white"/>
<path d="M374.672 608.615L349.192 608.979" stroke="#1A2535" stroke-width="1.33333" stroke-miterlimit="10" stroke-linecap="round" stroke-linejoin="round"/>
<path d="M307.332 636.643H376.856H307.332Z" fill="white"/>
<path d="M307.332 636.643H376.856" stroke="#1A2535" stroke-width="1.33333" stroke-miterlimit="10" stroke-linecap="round" stroke-linejoin="round"/>
<path d="M316.009 391.432C316.009 391.432 315.517 434.262 317.979 452.476C320.44 470.691 329.793 513.029 331.269 536.166C332.747 559.303 335.209 570.133 335.209 570.133C335.209 570.133 331.763 573.089 331.763 576.041C331.763 578.994 333.731 578.994 333.239 583.425C332.747 587.855 330.779 589.333 332.255 591.302C333.731 593.272 334.717 597.21 339.638 598.194C344.563 599.18 367.698 598.687 372.623 597.702C377.545 596.717 380.008 591.794 380.008 587.855C380.008 583.918 378.53 580.964 378.53 576.534C378.53 572.103 380.992 568.164 380.992 565.212C380.992 562.257 380.008 560.781 380.008 557.827C380.008 554.873 373.607 507.612 373.607 497.767C373.607 487.921 373.115 454.445 374.593 446.076C376.069 437.707 383.454 397.833 383.454 397.833L316.009 391.432Z" fill="#5AE4A7"/>
<path d="M316.009 391.432C316.009 391.432 315.517 434.262 317.979 452.476C320.44 470.691 329.793 513.029 331.269 536.166C332.747 559.303 335.209 570.133 335.209 570.133C335.209 570.133 331.763 573.089 331.763 576.041C331.763 578.994 333.731 578.994 333.239 583.425C332.747 587.855 330.779 589.333 332.255 591.302C333.731 593.272 334.717 597.21 339.638 598.194C344.563 599.18 367.698 598.687 372.623 597.702C377.545 596.717 380.008 591.794 380.008 587.855C380.008 583.918 378.53 580.964 378.53 576.534C378.53 572.103 380.992 568.164 380.992 565.212C380.992 562.257 380.008 560.781 380.008 557.827C380.008 554.873 373.607 507.612 373.607 497.767C373.607 487.921 373.115 454.445 374.593 446.076C376.069 437.707 383.454 397.833 383.454 397.833L316.009 391.432Z" stroke="#1A2535" stroke-width="1.33333" stroke-miterlimit="10" stroke-linecap="round" stroke-linejoin="round"/>
<path d="M347.207 405.879C347.207 405.879 355.605 408.973 365.327 409.414C375.05 409.855 379.471 410.74 379.471 410.74L382.122 398.366L347.207 405.879Z" fill="#1A2535"/>
<path d="M347.207 405.879C347.207 405.879 355.605 408.973 365.327 409.414C375.05 409.855 379.471 410.74 379.471 410.74L382.122 398.366L347.207 405.879Z" stroke="#1A2535" stroke-width="1.33333" stroke-miterlimit="10" stroke-linecap="round" stroke-linejoin="round"/>
<path d="M341.811 407.996C341.811 407.996 344.228 475.646 349.06 498.195C353.891 520.745 360.336 557.792 358.724 562.624C357.114 567.457 354.698 578.732 354.698 578.732C354.698 578.732 363.556 577.12 363.556 581.953C363.556 586.785 350.671 590.006 353.891 592.423C357.114 594.838 360.311 597.5 360.311 597.5" stroke="#1A2535" stroke-width="1.33333" stroke-miterlimit="10" stroke-linecap="round" stroke-linejoin="round"/>
<path d="M370.426 580.881C370.426 580.881 343.694 585.217 351.281 586.663C358.867 588.107 373.316 586.301 374.039 584.494C374.762 582.688 372.594 580.52 370.426 580.881Z" fill="#1A2535"/>
<path d="M370.426 580.881C370.426 580.881 343.694 585.217 351.281 586.663C358.867 588.107 373.316 586.301 374.039 584.494C374.762 582.688 372.594 580.52 370.426 580.881Z" stroke="#1A2535" stroke-width="1.33333" stroke-miterlimit="10" stroke-linecap="round" stroke-linejoin="round"/>
<path d="M252.426 113.188L251.689 143.414L280.194 143.167L280.44 112.944L252.426 113.188Z" fill="#5AE4A7"/>
<path d="M284.862 168.969C284.862 168.969 278.719 162.826 276.015 157.174C273.313 151.523 269.382 148.083 269.382 144.15C269.382 140.219 271.101 131.126 270.363 127.441C269.628 123.755 270.363 116.137 272.821 116.137C275.279 116.137 277 118.349 276.508 120.806C276.015 123.264 277.981 131.865 277.981 131.865C277.981 131.865 279.948 115.4 280.193 114.417C280.439 113.435 283.879 113.435 285.354 114.171C286.829 114.909 288.549 114.663 288.549 117.858C288.549 121.052 287.81 124.739 287.81 125.476C287.81 126.212 294.692 130.144 294.938 133.092C295.182 136.042 294.445 143.167 292.726 146.117C291.006 149.066 290.022 151.031 289.776 152.014C289.531 152.997 296.413 163.317 296.413 163.317L284.862 168.969Z" fill="white"/>
<path d="M284.862 168.969C284.862 168.969 278.719 162.826 276.015 157.174C273.313 151.523 269.382 148.083 269.382 144.15C269.382 140.219 271.101 131.126 270.363 127.441C269.628 123.755 270.363 116.137 272.821 116.137C275.279 116.137 277 118.349 276.508 120.806C276.015 123.264 277.981 131.865 277.981 131.865C277.981 131.865 279.948 115.4 280.193 114.417C280.439 113.435 283.879 113.435 285.354 114.171C286.829 114.909 288.549 114.663 288.549 117.858C288.549 121.052 287.81 124.739 287.81 125.476C287.81 126.212 294.692 130.144 294.938 133.092C295.182 136.042 294.445 143.167 292.726 146.117C291.006 149.066 290.022 151.031 289.776 152.014C289.531 152.997 296.413 163.317 296.413 163.317L284.862 168.969Z" stroke="#1A2535" stroke-width="1.33333" stroke-miterlimit="10" stroke-linecap="round" stroke-linejoin="round"/>
<path d="M296.318 158.578L279.579 171.378C279.579 171.378 308.133 230.454 309.117 232.422C310.101 234.391 330.778 247.19 330.778 247.19L361.792 208.793C361.792 208.793 322.901 196.485 321.917 195.009C320.933 193.531 296.318 158.578 296.318 158.578Z" fill="#1A2535"/>
<path d="M296.318 158.578L279.579 171.378C279.579 171.378 308.133 230.454 309.117 232.422C310.101 234.391 330.778 247.19 330.778 247.19L361.792 208.793C361.792 208.793 322.901 196.485 321.917 195.009C320.933 193.531 296.318 158.578 296.318 158.578Z" stroke="#1A2535" stroke-width="1.33333" stroke-miterlimit="10" stroke-linecap="round" stroke-linejoin="round"/>
<path d="M316.068 375.655L314.612 398.587C314.612 398.587 333.54 406.595 353.924 406.231C374.308 405.867 401.608 397.859 401.608 397.859L405.612 375.291C405.612 375.291 356.472 379.295 341.548 377.839C326.624 376.383 316.068 375.655 316.068 375.655Z" fill="white"/>
<path d="M316.068 375.655L314.612 398.587C314.612 398.587 333.54 406.595 353.924 406.231C374.308 405.867 401.608 397.859 401.608 397.859L405.612 375.291C405.612 375.291 356.472 379.295 341.548 377.839C326.624 376.383 316.068 375.655 316.068 375.655Z" stroke="#1A2535" stroke-width="1.33333" stroke-miterlimit="10" stroke-linecap="round" stroke-linejoin="round"/>
<path d="M301.508 368.375L300.416 374.927C300.416 374.927 315.839 383.346 349.92 386.575C384.5 389.851 412.164 380.023 412.164 380.023L412.528 368.739C412.528 368.739 385.592 375.655 357.2 375.291C328.808 374.927 301.508 368.375 301.508 368.375Z" fill="#1A2535"/>
<path d="M301.508 368.375L300.416 374.927C300.416 374.927 315.839 383.346 349.92 386.575C384.5 389.851 412.164 380.023 412.164 380.023L412.528 368.739C412.528 368.739 385.592 375.655 357.2 375.291C328.808 374.927 301.508 368.375 301.508 368.375Z" stroke="#1A2535" stroke-width="1.33333" stroke-miterlimit="10" stroke-linecap="round" stroke-linejoin="round"/>
<path d="M329.172 232.966C329.172 232.966 317.16 254.078 313.156 270.458C309.152 286.838 301.144 362.55 300.052 366.918C298.96 371.286 324.44 380.022 341.184 380.386C357.928 380.75 395.42 381.478 401.972 378.93C408.524 376.382 414.712 372.742 414.712 368.738C414.712 364.734 415.076 349.81 415.076 337.798C415.076 325.786 411.436 262.45 408.16 247.89C404.884 233.33 402.7 223.138 401.608 221.318C400.516 219.498 392.508 210.762 376.128 211.854C359.748 212.946 345.916 219.134 339.728 222.774C333.54 226.414 329.172 232.966 329.172 232.966Z" fill="#1A2535"/>
<path d="M329.172 232.966C329.172 232.966 317.16 254.078 313.156 270.458C309.152 286.838 301.144 362.55 300.052 366.918C298.96 371.286 324.44 380.022 341.184 380.386C357.928 380.75 395.42 381.478 401.972 378.93C408.524 376.382 414.712 372.742 414.712 368.738C414.712 364.734 415.076 349.81 415.076 337.798C415.076 325.786 411.436 262.45 408.16 247.89C404.884 233.33 402.7 223.138 401.608 221.318C400.516 219.498 392.508 210.762 376.128 211.854C359.748 212.946 345.916 219.134 339.728 222.774C333.54 226.414 329.172 232.966 329.172 232.966Z" stroke="#1A2535" stroke-width="1.33333" stroke-miterlimit="10" stroke-linecap="round" stroke-linejoin="round"/>
<path d="M219.39 256.501C219.39 256.501 213.482 258.963 212.99 264.87C212.498 270.778 223.329 276.685 229.728 285.546C236.129 294.408 244.498 303.761 244.498 303.761L257.297 321.483L272.558 308.684L233.174 262.901C233.174 262.901 235.143 258.471 232.682 256.993C230.22 255.516 223.821 254.532 219.39 256.501Z" fill="white"/>
<path d="M219.39 256.501C219.39 256.501 213.482 258.963 212.99 264.87C212.498 270.778 223.329 276.685 229.728 285.546C236.129 294.408 244.498 303.761 244.498 303.761L257.297 321.483L272.558 308.684L233.174 262.901C233.174 262.901 235.143 258.471 232.682 256.993C230.22 255.516 223.821 254.532 219.39 256.501Z" stroke="#1A2535" stroke-width="1.33333" stroke-miterlimit="10" stroke-linecap="round" stroke-linejoin="round"/>
<path d="M220.375 270.285L264.681 255.517C264.681 255.517 267.634 267.824 280.926 280.624C294.219 293.422 306.525 301.791 306.525 301.791L266.65 324.437L220.375 270.285Z" fill="white"/>
<path d="M220.375 270.285L264.681 255.517C264.681 255.517 267.634 267.824 280.926 280.624C294.219 293.422 306.525 301.791 306.525 301.791L266.65 324.437L220.375 270.285Z" stroke="#1A2535" stroke-width="1.33333" stroke-miterlimit="10" stroke-linecap="round" stroke-linejoin="round"/>
<path d="M220.375 270.285C220.375 270.285 223.328 267.332 223.822 262.408C224.314 257.485 219.391 256.501 219.391 256.501L263.205 243.701C263.205 243.701 271.574 246.656 264.681 255.517L220.375 270.285Z" fill="white"/>
<path d="M220.375 270.285C220.375 270.285 223.328 267.332 223.822 262.408C224.314 257.485 219.391 256.501 219.391 256.501L263.205 243.701C263.205 243.701 271.574 246.656 264.681 255.517L220.375 270.285Z" stroke="#1A2535" stroke-width="1.33333" stroke-miterlimit="10" stroke-linecap="round" stroke-linejoin="round"/>
<path d="M279.087 317.097C279.087 317.097 269.242 315.619 268.75 312.666C268.257 309.712 266.287 303.313 264.319 300.851C262.349 298.388 252.996 293.467 250.043 290.019C247.089 286.574 245.119 281.652 243.15 282.144C241.18 282.636 238.227 284.606 239.212 286.574C240.197 288.543 244.628 296.912 244.628 296.912L245.611 300.358C245.611 300.358 236.75 298.882 235.273 298.388C233.797 297.896 231.828 298.882 231.828 301.343C231.828 303.805 229.858 303.805 232.319 305.281C234.781 306.758 237.735 308.727 237.735 308.727C237.735 308.727 241.18 316.604 242.166 318.081C243.15 319.557 251.027 323.004 252.504 323.988C253.98 324.974 261.857 327.434 265.795 328.418C269.734 329.403 278.595 332.849 278.595 332.849L281.057 321.527L279.087 317.097Z" fill="white"/>
<path d="M279.087 317.097C279.087 317.097 269.242 315.619 268.75 312.666C268.257 309.712 266.287 303.313 264.319 300.851C262.349 298.388 252.996 293.467 250.043 290.019C247.089 286.574 245.119 281.652 243.15 282.144C241.18 282.636 238.227 284.606 239.212 286.574C240.197 288.543 244.628 296.912 244.628 296.912L245.611 300.358C245.611 300.358 236.75 298.882 235.273 298.388C233.797 297.896 231.828 298.882 231.828 301.343C231.828 303.805 229.858 303.805 232.319 305.281C234.781 306.758 237.735 308.727 237.735 308.727C237.735 308.727 241.18 316.604 242.166 318.081C243.15 319.557 251.027 323.004 252.504 323.988C253.98 324.974 261.857 327.434 265.795 328.418C269.734 329.403 278.595 332.849 278.595 332.849L281.057 321.527L279.087 317.097Z" stroke="#1A2535" stroke-width="1.33333" stroke-miterlimit="10" stroke-linecap="round" stroke-linejoin="round"/>
<path d="M383.453 249.16C383.453 249.16 382.468 291.004 382.468 292.974C382.468 294.943 383.945 335.31 379.515 338.758C375.084 342.203 353.423 346.634 321.917 345.649C290.411 344.664 276.625 337.772 276.625 337.772L279.087 317.097L339.147 312.665C339.147 312.665 332.747 266.883 333.732 251.13C334.717 235.376 347.515 227.007 347.515 227.007" fill="#1A2535"/>
<path d="M383.453 249.16C383.453 249.16 382.468 291.004 382.468 292.974C382.468 294.943 383.945 335.31 379.515 338.758C375.084 342.203 353.423 346.634 321.917 345.649C290.411 344.664 276.625 337.772 276.625 337.772L279.087 317.097L339.147 312.665C339.147 312.665 332.747 266.883 333.732 251.13C334.717 235.376 347.515 227.007 347.515 227.007" stroke="#1A2535" stroke-width="1.33333" stroke-miterlimit="10" stroke-linecap="round" stroke-linejoin="round"/>
<path d="M317.169 347.481C317.169 347.481 376.789 349.573 379.928 342.249C383.066 334.929 383.066 262.756 383.066 262.756" stroke="#717171" stroke-width="1.33333" stroke-miterlimit="10" stroke-linecap="round" stroke-linejoin="round"/>
<path d="M343.318 235.561C343.318 235.561 330.766 249.158 332.858 266.94C334.949 284.721 339.147 312.666 339.147 312.666L316.123 314.008" stroke="#717171" stroke-width="1.33333" stroke-miterlimit="10" stroke-linecap="round" stroke-linejoin="round"/>
<path d="M317.929 121.877C317.929 121.877 309.678 136.156 311.265 138.061C312.852 139.964 311.582 143.455 311.582 143.455C311.582 143.455 303.333 149.801 303.968 152.022C304.602 154.243 311.265 160.272 311.265 160.272C311.265 160.272 312.535 177.408 314.122 178.995C315.709 180.58 326.496 182.485 328.718 182.802C330.94 183.12 332.208 183.755 332.208 183.755L338.555 218.024L374.093 185.975L368.381 170.744C368.381 170.744 365.21 150.435 365.526 140.916C365.843 131.397 349.342 119.973 339.506 117.118C329.669 114.263 317.929 121.877 317.929 121.877Z" fill="white"/>
<path d="M317.929 121.877C317.929 121.877 309.678 136.156 311.265 138.061C312.852 139.964 311.582 143.455 311.582 143.455C311.582 143.455 303.333 149.801 303.968 152.022C304.602 154.243 311.265 160.272 311.265 160.272C311.265 160.272 312.535 177.408 314.122 178.995C315.709 180.58 326.496 182.485 328.718 182.802C330.94 183.12 332.208 183.755 332.208 183.755L338.555 218.024L374.093 185.975L368.381 170.744C368.381 170.744 365.21 150.435 365.526 140.916C365.843 131.397 349.342 119.973 339.506 117.118C329.669 114.263 317.929 121.877 317.929 121.877Z" stroke="#1A2535" stroke-width="1.33333" stroke-miterlimit="10" stroke-linecap="round" stroke-linejoin="round"/>
<path d="M324.593 102.522C324.593 102.522 316.342 93.9544 306.506 100.617C296.67 107.281 299.525 118.07 308.409 121.878C317.294 125.685 327.766 122.83 324.275 126.637C320.785 130.445 319.833 138.696 325.228 140.281C330.622 141.868 329.67 147.898 329.67 150.436C329.67 152.975 334.112 152.657 335.064 150.436C336.017 148.215 338.554 142.186 344.584 144.724C350.613 147.263 350.296 161.225 348.074 164.715C345.853 168.206 343.632 167.889 343.632 167.889C343.632 167.889 347.122 169.158 344.901 173.283L342.679 177.408C342.679 177.408 347.758 183.437 360.448 181.215C373.142 178.994 375.997 173.283 374.094 168.523C372.19 163.764 367.747 163.128 372.508 156.147C377.267 149.167 389.018 140.916 388.056 125.05C387.421 114.579 362.67 104.742 362.67 104.742C362.67 104.742 368.382 95.2226 355.373 89.1948C342.363 83.1655 327.448 90.1455 328.4 96.4922C329.353 102.839 324.593 102.522 324.593 102.522Z" fill="#1A2535"/>
<path d="M324.593 102.522C324.593 102.522 316.342 93.9544 306.506 100.617C296.67 107.281 299.525 118.07 308.409 121.878C317.294 125.685 327.766 122.83 324.275 126.637C320.785 130.445 319.833 138.696 325.228 140.281C330.622 141.868 329.67 147.898 329.67 150.436C329.67 152.975 334.112 152.657 335.064 150.436C336.017 148.215 338.554 142.186 344.584 144.724C350.613 147.263 350.296 161.225 348.074 164.715C345.853 168.206 343.632 167.889 343.632 167.889C343.632 167.889 347.122 169.158 344.901 173.283L342.679 177.408C342.679 177.408 347.758 183.437 360.448 181.215C373.142 178.994 375.997 173.283 374.094 168.523C372.19 163.764 367.747 163.128 372.508 156.147C377.267 149.167 389.018 140.916 388.056 125.05C387.421 114.579 362.67 104.742 362.67 104.742C362.67 104.742 368.382 95.2226 355.373 89.1948C342.363 83.1655 327.448 90.1455 328.4 96.4922C329.353 102.839 324.593 102.522 324.593 102.522Z" stroke="#1A2535" stroke-width="1.33333" stroke-miterlimit="10" stroke-linecap="round" stroke-linejoin="round"/>
<path d="M311.17 136.912C311.17 136.912 307.139 135.839 306.823 137.744C306.506 139.647 306.823 149.168 306.823 149.168C306.823 149.168 309.361 150.753 311.583 150.118C313.805 149.483 312.534 141.551 312.534 141.551" stroke="#1A2535" stroke-width="1.33333" stroke-miterlimit="10" stroke-linecap="round" stroke-linejoin="round"/>
<path d="M336.333 147.58L307.11 142.748L307.141 140.916L336.333 147.58Z" fill="#1A2535"/>
<path d="M336.333 147.58L307.11 142.748L307.141 140.916L336.333 147.58Z" stroke="#1A2535" stroke-width="1.33333" stroke-miterlimit="10" stroke-linecap="round" stroke-linejoin="round"/>
<path d="M378.22 176.138C378.22 176.138 362.036 187.878 350.93 199.937C339.823 211.995 326.497 225.322 325.862 229.447C325.227 233.572 326.497 239.918 332.843 233.256C339.188 226.592 350.93 217.707 359.814 217.072C368.7 216.437 382.344 220.88 389.324 221.832C396.306 222.784 400.748 224.687 403.287 220.88C405.825 217.072 399.163 208.504 399.163 204.061C399.163 199.619 400.113 192.004 396.939 186.61C393.768 181.215 383.613 174.551 378.22 176.138Z" fill="#767676"/>
<path d="M378.22 176.138C378.22 176.138 362.036 187.878 350.93 199.937C339.823 211.995 326.497 225.322 325.862 229.447C325.227 233.572 326.497 239.918 332.843 233.256C339.188 226.592 350.93 217.707 359.814 217.072C368.7 216.437 382.344 220.88 389.324 221.832C396.306 222.784 400.748 224.687 403.287 220.88C405.825 217.072 399.163 208.504 399.163 204.061C399.163 199.619 400.113 192.004 396.939 186.61C393.768 181.215 383.613 174.551 378.22 176.138Z" stroke="#1A2535" stroke-width="1.33333" stroke-miterlimit="10" stroke-linecap="round" stroke-linejoin="round"/>
<path d="M398.955 191.859C398.955 191.859 397.117 197.982 395.283 200.737C393.445 203.491 367.428 208.695 367.428 208.695C367.428 208.695 388.854 207.471 392.834 207.471C396.811 207.471 401.404 211.144 401.404 211.144L399.26 205.327C399.26 205.327 400.179 194.614 398.955 191.859Z" fill="#1A2535"/>
<path d="M398.955 191.859C398.955 191.859 397.117 197.982 395.283 200.737C393.445 203.491 367.428 208.695 367.428 208.695C367.428 208.695 388.854 207.471 392.834 207.471C396.811 207.471 401.404 211.144 401.404 211.144L399.26 205.327C399.26 205.327 400.179 194.614 398.955 191.859Z" stroke="#1A2535" stroke-width="1.33333" stroke-miterlimit="10" stroke-linecap="round" stroke-linejoin="round"/>
<path d="M21.592 640.04H686.984" stroke="#1A2535" stroke-width="1.33333" stroke-miterlimit="10" stroke-linecap="round" stroke-linejoin="round"/>
</svg>
