<svg width="200" height="200" viewBox="0 0 200 200" fill="none" xmlns="http://www.w3.org/2000/svg">
<circle cx="100" cy="100" r="97.5" stroke="#B2B2B2" stroke-width="5" stroke-dasharray="20 20"/>
<path d="M141.936 64.3184H121.781L119.821 58.4381C118.586 54.7355 115.135 52.248 111.232 52.248H91.7679C87.8654 52.248 84.4139 54.7355 83.1797 58.4381L81.2195 64.3184H76.3535V59.2891C76.3535 55.4066 73.1949 52.248 69.3125 52.248H65.2891C61.4066 52.248 58.248 55.4066 58.248 59.2891V64.6829C53.5068 65.9318 50 70.2549 50 75.3828V127.688C50 133.788 54.9635 138.752 61.0645 138.752H141.936C148.036 138.752 153 133.788 153 127.688V75.3828C153 69.2819 148.036 64.3184 141.936 64.3184ZM64.2832 59.2891C64.2832 58.7344 64.7344 58.2832 65.2891 58.2832H69.3125C69.8671 58.2832 70.3184 58.7344 70.3184 59.2891V64.3184H64.2832V59.2891ZM146.965 127.688C146.965 130.461 144.709 132.717 141.936 132.717H61.0645C58.2913 132.717 56.0352 130.461 56.0352 127.688V75.3828C56.0352 72.6097 58.2913 70.3535 61.0645 70.3535H83.3945C84.6933 70.3535 85.8464 69.5225 86.2572 68.2901L88.905 60.3466C89.3166 59.1124 90.4669 58.2832 91.7679 58.2832H111.232C112.533 58.2832 113.684 59.1124 114.095 60.3464L116.743 68.2901C117.154 69.5225 118.307 70.3535 119.605 70.3535H141.936C144.709 70.3535 146.965 72.6097 146.965 75.3828V127.688Z" fill="#B2B2B2"/>
<path d="M137.711 82.4238C139.378 82.4238 140.729 81.0728 140.729 79.4062C140.729 77.7397 139.378 76.3887 137.711 76.3887C136.044 76.3887 134.693 77.7397 134.693 79.4062C134.693 81.0728 136.044 82.4238 137.711 82.4238Z" fill="#B2B2B2"/>
<path d="M71.3242 76.3887H65.2891C63.6226 76.3887 62.2715 77.7397 62.2715 79.4062C62.2715 81.0728 63.6226 82.4238 65.2891 82.4238H71.3242C72.9907 82.4238 74.3418 81.0728 74.3418 79.4062C74.3418 77.7397 72.9907 76.3887 71.3242 76.3887Z" fill="#B2B2B2"/>
<path d="M101.5 126.682C86.525 126.682 74.3418 114.498 74.3418 99.5234C74.3418 84.5484 86.525 72.3652 101.5 72.3652C116.475 72.3652 128.658 84.5484 128.658 99.5234C128.658 114.498 116.475 126.682 101.5 126.682ZM101.5 78.4004C89.8528 78.4004 80.377 87.8762 80.377 99.5234C80.377 111.171 89.8528 120.646 101.5 120.646C113.147 120.646 122.623 111.171 122.623 99.5234C122.623 87.8762 113.147 78.4004 101.5 78.4004Z" fill="#B2B2B2"/>
<path d="M101.5 114.611C93.1805 114.611 86.4121 107.843 86.4121 99.5234C86.4121 91.204 93.1805 84.4355 101.5 84.4355C109.819 84.4355 116.588 91.204 116.588 99.5234C116.588 107.843 109.819 114.611 101.5 114.611ZM101.5 90.4707C96.5083 90.4707 92.4473 94.5318 92.4473 99.5234C92.4473 104.515 96.5083 108.576 101.5 108.576C106.492 108.576 110.553 104.515 110.553 99.5234C110.553 94.5318 106.492 90.4707 101.5 90.4707Z" fill="#B2B2B2"/>
</svg>
